<?xml version="1.0" encoding="UTF-8" standalone="no"?>
<!DOCTYPE svg PUBLIC "-//W3C//DTD SVG 1.1//EN"
 "http://www.w3.org/Graphics/SVG/1.1/DTD/svg11.dtd">
<!-- Generated by graphviz version 5.0.0 (20220707.1540)
 -->
<!-- Title: dependencies Pages: 1 -->
<svg width="866pt" height="174pt"
 viewBox="0.00 0.00 866.00 173.80" xmlns="http://www.w3.org/2000/svg" xmlns:xlink="http://www.w3.org/1999/xlink">
<g id="graph0" class="graph" transform="scale(1 1) rotate(0) translate(4 169.8)">
<title>dependencies</title>
<polygon fill="white" stroke="transparent" points="-4,4 -4,-169.8 862,-169.8 862,4 -4,4"/>
<text text-anchor="middle" x="429" y="-8.2" font-family="sans-serif" font-size="14.00">dependencies</text>
<g id="clust1" class="cluster">
<title>cluster_ListingModule</title>
<polygon fill="none" stroke="black" stroke-dasharray="1,5" points="8,-32.8 8,-157.8 850,-157.8 850,-32.8 8,-32.8"/>
</g>
<g id="clust7" class="cluster">
<title>cluster_ListingModule_imports</title>
<polygon fill="none" stroke="black" points="698,-40.8 698,-92.8 842,-92.8 842,-40.8 698,-40.8"/>
</g>
<g id="clust2" class="cluster">
<title>cluster_ListingModule_declarations</title>
<polygon fill="none" stroke="black" points="16,-40.8 16,-92.8 690,-92.8 690,-40.8 16,-40.8"/>
</g>
<!-- CreateEditListingComponent -->
<g id="node1" class="node">
<title>CreateEditListingComponent</title>
<polygon fill="#ffffb3" stroke="black" points="682.36,-84.8 501.64,-84.8 501.64,-48.8 682.36,-48.8 682.36,-84.8"/>
<text text-anchor="middle" x="592" y="-62.6" font-family="Times,serif" font-size="14.00">CreateEditListingComponent</text>
</g>
<!-- ListingModule -->
<g id="node5" class="node">
<title>ListingModule</title>
<polygon fill="#8dd3c7" stroke="black" points="455.72,-149.8 452.72,-153.8 431.72,-153.8 428.72,-149.8 356.28,-149.8 356.28,-113.8 455.72,-113.8 455.72,-149.8"/>
<text text-anchor="middle" x="406" y="-127.6" font-family="Times,serif" font-size="14.00">ListingModule</text>
</g>
<!-- CreateEditListingComponent&#45;&gt;ListingModule -->
<g id="edge1" class="edge">
<title>CreateEditListingComponent&#45;&gt;ListingModule</title>
<path fill="none" stroke="black" d="M592,-84.82C592,-102.17 592,-125.8 592,-125.8 592,-125.8 465.84,-125.8 465.84,-125.8"/>
<polygon fill="black" stroke="black" points="465.84,-122.3 455.84,-125.8 465.84,-129.3 465.84,-122.3"/>
</g>
<!-- ListingDetailComponent -->
<g id="node2" class="node">
<title>ListingDetailComponent</title>
<polygon fill="#ffffb3" stroke="black" points="483.71,-84.8 328.29,-84.8 328.29,-48.8 483.71,-48.8 483.71,-84.8"/>
<text text-anchor="middle" x="406" y="-62.6" font-family="Times,serif" font-size="14.00">ListingDetailComponent</text>
</g>
<!-- ListingDetailComponent&#45;&gt;ListingModule -->
<g id="edge2" class="edge">
<title>ListingDetailComponent&#45;&gt;ListingModule</title>
<path fill="none" stroke="black" d="M406,-84.91C406,-84.91 406,-103.79 406,-103.79"/>
<polygon fill="black" stroke="black" points="402.5,-103.79 406,-113.79 409.5,-103.79 402.5,-103.79"/>
</g>
<!-- ListingsComponent -->
<g id="node3" class="node">
<title>ListingsComponent</title>
<polygon fill="#ffffb3" stroke="black" points="310.45,-84.8 183.55,-84.8 183.55,-48.8 310.45,-48.8 310.45,-84.8"/>
<text text-anchor="middle" x="247" y="-62.6" font-family="Times,serif" font-size="14.00">ListingsComponent</text>
</g>
<!-- ListingsComponent&#45;&gt;ListingModule -->
<g id="edge3" class="edge">
<title>ListingsComponent&#45;&gt;ListingModule</title>
<path fill="none" stroke="black" d="M247,-84.82C247,-102.17 247,-125.8 247,-125.8 247,-125.8 346.13,-125.8 346.13,-125.8"/>
<polygon fill="black" stroke="black" points="346.13,-129.3 356.13,-125.8 346.13,-122.3 346.13,-129.3"/>
</g>
<!-- MylistingsComponent -->
<g id="node4" class="node">
<title>MylistingsComponent</title>
<polygon fill="#ffffb3" stroke="black" points="165.73,-84.8 24.27,-84.8 24.27,-48.8 165.73,-48.8 165.73,-84.8"/>
<text text-anchor="middle" x="95" y="-62.6" font-family="Times,serif" font-size="14.00">MylistingsComponent</text>
</g>
<!-- MylistingsComponent&#45;&gt;ListingModule -->
<g id="edge4" class="edge">
<title>MylistingsComponent&#45;&gt;ListingModule</title>
<path fill="none" stroke="black" d="M95,-85.08C95,-106.12 95,-137.8 95,-137.8 95,-137.8 346.38,-137.8 346.38,-137.8"/>
<polygon fill="black" stroke="black" points="346.38,-141.3 356.38,-137.8 346.38,-134.3 346.38,-141.3"/>
</g>
<!-- AppRoutingModule -->
<g id="node6" class="node">
<title>AppRoutingModule</title>
<polygon fill="#8dd3c7" stroke="black" points="834.28,-84.8 831.28,-88.8 810.28,-88.8 807.28,-84.8 705.72,-84.8 705.72,-48.8 834.28,-48.8 834.28,-84.8"/>
<text text-anchor="middle" x="770" y="-62.6" font-family="Times,serif" font-size="14.00">AppRoutingModule</text>
</g>
<!-- AppRoutingModule&#45;&gt;ListingModule -->
<g id="edge5" class="edge">
<title>AppRoutingModule&#45;&gt;ListingModule</title>
<path fill="none" stroke="black" d="M770,-85.08C770,-106.12 770,-137.8 770,-137.8 770,-137.8 465.85,-137.8 465.85,-137.8"/>
<polygon fill="black" stroke="black" points="465.85,-134.3 455.85,-137.8 465.85,-141.3 465.85,-134.3"/>
</g>
</g>
</svg>
