<?xml version="1.0" encoding="UTF-8" standalone="no"?>
<!DOCTYPE svg PUBLIC "-//W3C//DTD SVG 1.1//EN"
 "http://www.w3.org/Graphics/SVG/1.1/DTD/svg11.dtd">
<!-- Generated by graphviz version 5.0.0 (20220707.1540)
 -->
<!-- Title: dependencies Pages: 1 -->
<svg width="935pt" height="174pt"
 viewBox="0.00 0.00 935.00 173.80" xmlns="http://www.w3.org/2000/svg" xmlns:xlink="http://www.w3.org/1999/xlink">
<g id="graph0" class="graph" transform="scale(1 1) rotate(0) translate(4 169.8)">
<title>dependencies</title>
<polygon fill="white" stroke="transparent" points="-4,4 -4,-169.8 931,-169.8 931,4 -4,4"/>
<text text-anchor="middle" x="463.5" y="-8.2" font-family="sans-serif" font-size="14.00">dependencies</text>
<g id="clust1" class="cluster">
<title>cluster_UserModule</title>
<polygon fill="none" stroke="black" stroke-dasharray="1,5" points="8,-32.8 8,-157.8 919,-157.8 919,-32.8 8,-32.8"/>
</g>
<g id="clust2" class="cluster">
<title>cluster_UserModule_declarations</title>
<polygon fill="none" stroke="black" points="308,-40.8 308,-92.8 911,-92.8 911,-40.8 308,-40.8"/>
</g>
<g id="clust10" class="cluster">
<title>cluster_UserModule_providers</title>
<polygon fill="none" stroke="black" points="168,-40.8 168,-92.8 300,-92.8 300,-40.8 168,-40.8"/>
</g>
<g id="clust7" class="cluster">
<title>cluster_UserModule_imports</title>
<polygon fill="none" stroke="black" points="16,-40.8 16,-92.8 160,-92.8 160,-40.8 16,-40.8"/>
</g>
<!-- ChangePasswordComponent -->
<g id="node1" class="node">
<title>ChangePasswordComponent</title>
<polygon fill="#ffffb3" stroke="black" points="902.77,-84.8 725.23,-84.8 725.23,-48.8 902.77,-48.8 902.77,-84.8"/>
<text text-anchor="middle" x="814" y="-62.6" font-family="Times,serif" font-size="14.00">ChangePasswordComponent</text>
</g>
<!-- UserModule -->
<g id="node5" class="node">
<title>UserModule</title>
<polygon fill="#8dd3c7" stroke="black" points="488.99,-149.8 485.99,-153.8 464.99,-153.8 461.99,-149.8 403.01,-149.8 403.01,-113.8 488.99,-113.8 488.99,-149.8"/>
<text text-anchor="middle" x="446" y="-127.6" font-family="Times,serif" font-size="14.00">UserModule</text>
</g>
<!-- ChangePasswordComponent&#45;&gt;UserModule -->
<g id="edge1" class="edge">
<title>ChangePasswordComponent&#45;&gt;UserModule</title>
<path fill="none" stroke="black" d="M814,-85.08C814,-106.12 814,-137.8 814,-137.8 814,-137.8 499.3,-137.8 499.3,-137.8"/>
<polygon fill="black" stroke="black" points="499.3,-134.3 489.3,-137.8 499.3,-141.3 499.3,-134.3"/>
</g>
<!-- LoginComponent -->
<g id="node2" class="node">
<title>LoginComponent</title>
<polygon fill="#ffffb3" stroke="black" points="707.27,-84.8 592.73,-84.8 592.73,-48.8 707.27,-48.8 707.27,-84.8"/>
<text text-anchor="middle" x="650" y="-62.6" font-family="Times,serif" font-size="14.00">LoginComponent</text>
</g>
<!-- LoginComponent&#45;&gt;UserModule -->
<g id="edge2" class="edge">
<title>LoginComponent&#45;&gt;UserModule</title>
<path fill="none" stroke="black" d="M650,-84.82C650,-102.17 650,-125.8 650,-125.8 650,-125.8 499.26,-125.8 499.26,-125.8"/>
<polygon fill="black" stroke="black" points="499.26,-122.3 489.26,-125.8 499.26,-129.3 499.26,-122.3"/>
</g>
<!-- ProfileComponent -->
<g id="node3" class="node">
<title>ProfileComponent</title>
<polygon fill="#ffffb3" stroke="black" points="574.94,-84.8 455.06,-84.8 455.06,-48.8 574.94,-48.8 574.94,-84.8"/>
<text text-anchor="middle" x="515" y="-62.6" font-family="Times,serif" font-size="14.00">ProfileComponent</text>
</g>
<!-- ProfileComponent&#45;&gt;UserModule -->
<g id="edge3" class="edge">
<title>ProfileComponent&#45;&gt;UserModule</title>
<path fill="none" stroke="black" d="M472.14,-84.91C472.14,-84.91 472.14,-103.79 472.14,-103.79"/>
<polygon fill="black" stroke="black" points="468.64,-103.79 472.14,-113.79 475.64,-103.79 468.64,-103.79"/>
</g>
<!-- SignupComponent -->
<g id="node4" class="node">
<title>SignupComponent</title>
<polygon fill="#ffffb3" stroke="black" points="437.51,-84.8 316.49,-84.8 316.49,-48.8 437.51,-48.8 437.51,-84.8"/>
<text text-anchor="middle" x="377" y="-62.6" font-family="Times,serif" font-size="14.00">SignupComponent</text>
</g>
<!-- SignupComponent&#45;&gt;UserModule -->
<g id="edge4" class="edge">
<title>SignupComponent&#45;&gt;UserModule</title>
<path fill="none" stroke="black" d="M420.26,-84.91C420.26,-84.91 420.26,-103.79 420.26,-103.79"/>
<polygon fill="black" stroke="black" points="416.76,-103.79 420.26,-113.79 423.76,-103.79 416.76,-103.79"/>
</g>
<!-- AppRoutingModule -->
<g id="node6" class="node">
<title>AppRoutingModule</title>
<polygon fill="#8dd3c7" stroke="black" points="152.28,-84.8 149.28,-88.8 128.28,-88.8 125.28,-84.8 23.72,-84.8 23.72,-48.8 152.28,-48.8 152.28,-84.8"/>
<text text-anchor="middle" x="88" y="-62.6" font-family="Times,serif" font-size="14.00">AppRoutingModule</text>
</g>
<!-- AppRoutingModule&#45;&gt;UserModule -->
<g id="edge5" class="edge">
<title>AppRoutingModule&#45;&gt;UserModule</title>
<path fill="none" stroke="black" d="M88,-85.08C88,-106.12 88,-137.8 88,-137.8 88,-137.8 392.82,-137.8 392.82,-137.8"/>
<polygon fill="black" stroke="black" points="392.82,-141.3 402.82,-137.8 392.82,-134.3 392.82,-141.3"/>
</g>
<!-- UserService -->
<g id="node7" class="node">
<title>UserService</title>
<ellipse fill="#fdb462" stroke="black" cx="234" cy="-66.8" rx="58.46" ry="18"/>
<text text-anchor="middle" x="234" y="-62.6" font-family="Times,serif" font-size="14.00">UserService</text>
</g>
<!-- UserService&#45;&gt;UserModule -->
<g id="edge6" class="edge">
<title>UserService&#45;&gt;UserModule</title>
<path fill="none" stroke="black" d="M234,-84.82C234,-102.17 234,-125.8 234,-125.8 234,-125.8 392.84,-125.8 392.84,-125.8"/>
<polygon fill="black" stroke="black" points="392.84,-129.3 402.84,-125.8 392.84,-122.3 392.84,-129.3"/>
</g>
</g>
</svg>
