<?xml version="1.0" encoding="UTF-8" standalone="no"?>
<!DOCTYPE svg PUBLIC "-//W3C//DTD SVG 1.1//EN"
 "http://www.w3.org/Graphics/SVG/1.1/DTD/svg11.dtd">
<!-- Generated by graphviz version 5.0.0 (20220707.1540)
 -->
<!-- Title: dependencies Pages: 1 -->
<svg width="3438pt" height="315pt"
 viewBox="0.00 0.00 3438.00 314.80" xmlns="http://www.w3.org/2000/svg" xmlns:xlink="http://www.w3.org/1999/xlink">
<g id="graph0" class="graph" transform="scale(1 1) rotate(0) translate(4 310.8)">
<title>dependencies</title>
<polygon fill="white" stroke="transparent" points="-4,4 -4,-310.8 3434,-310.8 3434,4 -4,4"/>
<text text-anchor="middle" x="1715" y="-8.2" font-family="sans-serif" font-size="14.00">dependencies</text>
<g id="clust1" class="cluster">
<title>cluster_AppModule</title>
<polygon fill="none" stroke="black" stroke-dasharray="1,5" points="8,-32.8 8,-298.8 1161,-298.8 1161,-32.8 8,-32.8"/>
</g>
<g id="clust2" class="cluster">
<title>cluster_AppModule_declarations</title>
<polygon fill="none" stroke="black" points="719,-108.8 719,-160.8 1153,-160.8 1153,-108.8 719,-108.8"/>
</g>
<g id="clust6" class="cluster">
<title>cluster_AppModule_imports</title>
<polygon fill="none" stroke="black" points="210,-40.8 210,-160.8 711,-160.8 711,-40.8 210,-40.8"/>
</g>
<g id="clust8" class="cluster">
<title>cluster_AppModule_bootstrap</title>
<polygon fill="none" stroke="black" points="474,-238.8 474,-290.8 598,-290.8 598,-238.8 474,-238.8"/>
</g>
<g id="clust9" class="cluster">
<title>cluster_AppModule_providers</title>
<polygon fill="none" stroke="black" points="16,-108.8 16,-160.8 188,-160.8 188,-108.8 16,-108.8"/>
</g>
<g id="clust16" class="cluster">
<title>cluster_ListingModule</title>
<polygon fill="none" stroke="black" stroke-dasharray="1,5" points="1577,-32.8 1577,-100.8 2267,-100.8 2267,-32.8 1577,-32.8"/>
</g>
<g id="clust17" class="cluster">
<title>cluster_ListingModule_declarations</title>
<polygon fill="none" stroke="black" points="1585,-40.8 1585,-92.8 2259,-92.8 2259,-40.8 1585,-40.8"/>
</g>
<g id="clust26" class="cluster">
<title>cluster_TaxonomyModule</title>
<polygon fill="none" stroke="black" stroke-dasharray="1,5" points="1169,-32.8 1169,-100.8 1569,-100.8 1569,-32.8 1169,-32.8"/>
</g>
<g id="clust27" class="cluster">
<title>cluster_TaxonomyModule_declarations</title>
<polygon fill="none" stroke="black" points="1295,-40.8 1295,-92.8 1561,-92.8 1561,-40.8 1295,-40.8"/>
</g>
<g id="clust31" class="cluster">
<title>cluster_TaxonomyModule_exports</title>
<polygon fill="none" stroke="black" points="1177,-40.8 1177,-92.8 1287,-92.8 1287,-40.8 1177,-40.8"/>
</g>
<g id="clust34" class="cluster">
<title>cluster_TransactionModule</title>
<polygon fill="none" stroke="black" stroke-dasharray="1,5" points="2275,-32.8 2275,-100.8 2656,-100.8 2656,-32.8 2275,-32.8"/>
</g>
<g id="clust35" class="cluster">
<title>cluster_TransactionModule_declarations</title>
<polygon fill="none" stroke="black" points="2283,-40.8 2283,-92.8 2648,-92.8 2648,-40.8 2283,-40.8"/>
</g>
<g id="clust42" class="cluster">
<title>cluster_UserModule</title>
<polygon fill="none" stroke="black" stroke-dasharray="1,5" points="2664,-32.8 2664,-100.8 3422,-100.8 3422,-32.8 2664,-32.8"/>
</g>
<g id="clust43" class="cluster">
<title>cluster_UserModule_declarations</title>
<polygon fill="none" stroke="black" points="2812,-40.8 2812,-92.8 3414,-92.8 3414,-40.8 2812,-40.8"/>
</g>
<g id="clust51" class="cluster">
<title>cluster_UserModule_providers</title>
<polygon fill="none" stroke="black" points="2672,-40.8 2672,-92.8 2804,-92.8 2804,-40.8 2672,-40.8"/>
</g>
<!-- AppComponent -->
<g id="node1" class="node">
<title>AppComponent</title>
<polygon fill="#ffffb3" stroke="black" points="1144.94,-152.8 1039.06,-152.8 1039.06,-116.8 1144.94,-116.8 1144.94,-152.8"/>
<text text-anchor="middle" x="1092" y="-130.6" font-family="Times,serif" font-size="14.00">AppComponent</text>
</g>
<!-- AppModule -->
<g id="node4" class="node">
<title>AppModule</title>
<polygon fill="#8dd3c7" stroke="black" points="577.66,-217.8 574.66,-221.8 553.66,-221.8 550.66,-217.8 494.34,-217.8 494.34,-181.8 577.66,-181.8 577.66,-217.8"/>
<text text-anchor="middle" x="536" y="-195.6" font-family="Times,serif" font-size="14.00">AppModule</text>
</g>
<!-- AppComponent&#45;&gt;AppModule -->
<g id="edge1" class="edge">
<title>AppComponent&#45;&gt;AppModule</title>
<path fill="none" stroke="black" d="M1092,-152.81C1092,-175.29 1092,-210.8 1092,-210.8 1092,-210.8 587.79,-210.8 587.79,-210.8"/>
<polygon fill="black" stroke="black" points="587.79,-207.3 577.79,-210.8 587.79,-214.3 587.79,-207.3"/>
</g>
<!-- CategoriesComponent -->
<g id="node2" class="node">
<title>CategoriesComponent</title>
<polygon fill="#ffffb3" stroke="black" points="1021.7,-152.8 880.3,-152.8 880.3,-116.8 1021.7,-116.8 1021.7,-152.8"/>
<text text-anchor="middle" x="951" y="-130.6" font-family="Times,serif" font-size="14.00">CategoriesComponent</text>
</g>
<!-- CategoriesComponent&#45;&gt;AppModule -->
<g id="edge2" class="edge">
<title>CategoriesComponent&#45;&gt;AppModule</title>
<path fill="none" stroke="black" d="M951,-152.93C951,-173.37 951,-203.8 951,-203.8 951,-203.8 587.69,-203.8 587.69,-203.8"/>
<polygon fill="black" stroke="black" points="587.69,-200.3 577.69,-203.8 587.69,-207.3 587.69,-200.3"/>
</g>
<!-- MessagesComponent -->
<g id="node3" class="node">
<title>MessagesComponent</title>
<polygon fill="#ffffb3" stroke="black" points="862.77,-152.8 727.23,-152.8 727.23,-116.8 862.77,-116.8 862.77,-152.8"/>
<text text-anchor="middle" x="795" y="-130.6" font-family="Times,serif" font-size="14.00">MessagesComponent</text>
</g>
<!-- MessagesComponent&#45;&gt;AppModule -->
<g id="edge3" class="edge">
<title>MessagesComponent&#45;&gt;AppModule</title>
<path fill="none" stroke="black" d="M795,-153.07C795,-171.36 795,-196.8 795,-196.8 795,-196.8 587.9,-196.8 587.9,-196.8"/>
<polygon fill="black" stroke="black" points="587.9,-193.3 577.9,-196.8 587.9,-200.3 587.9,-193.3"/>
</g>
<!-- AppComponent  -->
<g id="node10" class="node">
<title>AppComponent </title>
<polygon fill="#80b1d3" stroke="black" points="590.44,-282.8 481.56,-282.8 481.56,-246.8 590.44,-246.8 590.44,-282.8"/>
<text text-anchor="middle" x="536" y="-260.6" font-family="Times,serif" font-size="14.00">AppComponent </text>
</g>
<!-- AppModule&#45;&gt;AppComponent  -->
<g id="edge9" class="edge">
<title>AppModule&#45;&gt;AppComponent </title>
<path fill="none" stroke="black" stroke-dasharray="1,5" d="M536,-217.91C536,-217.91 536,-236.79 536,-236.79"/>
<polygon fill="black" stroke="black" points="532.5,-236.79 536,-246.79 539.5,-236.79 532.5,-236.79"/>
</g>
<!-- AppRoutingModule -->
<g id="node5" class="node">
<title>AppRoutingModule</title>
<polygon fill="#8dd3c7" stroke="black" points="470.28,-84.8 467.28,-88.8 446.28,-88.8 443.28,-84.8 341.72,-84.8 341.72,-48.8 470.28,-48.8 470.28,-84.8"/>
<text text-anchor="middle" x="406" y="-62.6" font-family="Times,serif" font-size="14.00">AppRoutingModule</text>
</g>
<!-- AppRoutingModule&#45;&gt;AppModule -->
<g id="edge4" class="edge">
<title>AppRoutingModule&#45;&gt;AppModule</title>
<path fill="none" stroke="black" d="M460.54,-84.95C460.54,-119.16 460.54,-189.8 460.54,-189.8 460.54,-189.8 484.3,-189.8 484.3,-189.8"/>
<polygon fill="black" stroke="black" points="484.3,-193.3 494.3,-189.8 484.3,-186.3 484.3,-193.3"/>
</g>
<!-- ListingModule -->
<g id="node6" class="node">
<title>ListingModule</title>
<polygon fill="#8dd3c7" stroke="black" points="455.72,-152.8 452.72,-156.8 431.72,-156.8 428.72,-152.8 356.28,-152.8 356.28,-116.8 455.72,-116.8 455.72,-152.8"/>
<text text-anchor="middle" x="406" y="-130.6" font-family="Times,serif" font-size="14.00">ListingModule</text>
</g>
<!-- AppRoutingModule&#45;&gt;ListingModule -->
<g id="edge15" class="edge">
<title>AppRoutingModule&#45;&gt;ListingModule</title>
<path fill="none" stroke="black" d="M372.93,-85.02C372.93,-85.02 372.93,-106.53 372.93,-106.53"/>
<polygon fill="black" stroke="black" points="369.43,-106.53 372.93,-116.53 376.43,-106.53 369.43,-106.53"/>
</g>
<!-- TaxonomyModule -->
<g id="node7" class="node">
<title>TaxonomyModule</title>
<polygon fill="#8dd3c7" stroke="black" points="338.21,-152.8 335.21,-156.8 314.21,-156.8 311.21,-152.8 217.79,-152.8 217.79,-116.8 338.21,-116.8 338.21,-152.8"/>
<text text-anchor="middle" x="278" y="-130.6" font-family="Times,serif" font-size="14.00">TaxonomyModule</text>
</g>
<!-- AppRoutingModule&#45;&gt;TaxonomyModule -->
<g id="edge18" class="edge">
<title>AppRoutingModule&#45;&gt;TaxonomyModule</title>
<path fill="none" stroke="black" d="M349,-85.02C349,-105.17 349,-134.8 349,-134.8 349,-134.8 347.92,-134.8 347.92,-134.8"/>
<polygon fill="black" stroke="black" points="348.22,-131.3 338.22,-134.8 348.22,-138.3 348.22,-131.3"/>
</g>
<!-- TransactionModule -->
<g id="node8" class="node">
<title>TransactionModule</title>
<polygon fill="#8dd3c7" stroke="black" points="598.64,-152.8 595.64,-156.8 574.64,-156.8 571.64,-152.8 473.36,-152.8 473.36,-116.8 598.64,-116.8 598.64,-152.8"/>
<text text-anchor="middle" x="536" y="-130.6" font-family="Times,serif" font-size="14.00">TransactionModule</text>
</g>
<!-- AppRoutingModule&#45;&gt;TransactionModule -->
<g id="edge22" class="edge">
<title>AppRoutingModule&#45;&gt;TransactionModule</title>
<path fill="none" stroke="black" d="M465.46,-85.02C465.46,-105.17 465.46,-134.8 465.46,-134.8 465.46,-134.8 466.25,-134.8 466.25,-134.8"/>
<polygon fill="black" stroke="black" points="463.28,-138.3 473.28,-134.8 463.28,-131.3 463.28,-138.3"/>
</g>
<!-- UserModule -->
<g id="node9" class="node">
<title>UserModule</title>
<polygon fill="#8dd3c7" stroke="black" points="702.99,-152.8 699.99,-156.8 678.99,-156.8 675.99,-152.8 617.01,-152.8 617.01,-116.8 702.99,-116.8 702.99,-152.8"/>
<text text-anchor="middle" x="660" y="-130.6" font-family="Times,serif" font-size="14.00">UserModule</text>
</g>
<!-- AppRoutingModule&#45;&gt;UserModule -->
<g id="edge27" class="edge">
<title>AppRoutingModule&#45;&gt;UserModule</title>
<path fill="none" stroke="black" d="M470.29,-66.8C536.25,-66.8 629.29,-66.8 629.29,-66.8 629.29,-66.8 629.29,-106.58 629.29,-106.58"/>
<polygon fill="black" stroke="black" points="625.79,-106.58 629.29,-116.58 632.79,-106.58 625.79,-106.58"/>
</g>
<!-- ListingModule&#45;&gt;AppModule -->
<g id="edge5" class="edge">
<title>ListingModule&#45;&gt;AppModule</title>
<path fill="none" stroke="black" d="M406,-153.07C406,-171.36 406,-196.8 406,-196.8 406,-196.8 484.15,-196.8 484.15,-196.8"/>
<polygon fill="black" stroke="black" points="484.15,-200.3 494.15,-196.8 484.15,-193.3 484.15,-200.3"/>
</g>
<!-- TaxonomyModule&#45;&gt;AppModule -->
<g id="edge6" class="edge">
<title>TaxonomyModule&#45;&gt;AppModule</title>
<path fill="none" stroke="black" d="M278,-152.93C278,-173.37 278,-203.8 278,-203.8 278,-203.8 484.26,-203.8 484.26,-203.8"/>
<polygon fill="black" stroke="black" points="484.26,-207.3 494.26,-203.8 484.26,-200.3 484.26,-207.3"/>
</g>
<!-- OrderByPipe  -->
<g id="node18" class="node">
<title>OrderByPipe </title>
<polygon fill="#fb8072" stroke="black" points="1278.88,-84.8 1185.12,-84.8 1185.12,-48.8 1278.88,-48.8 1278.88,-84.8"/>
<text text-anchor="middle" x="1232" y="-62.6" font-family="Times,serif" font-size="14.00">OrderByPipe </text>
</g>
<!-- TaxonomyModule&#45;&gt;OrderByPipe  -->
<g id="edge19" class="edge">
<title>TaxonomyModule&#45;&gt;OrderByPipe </title>
<path fill="none" stroke="black" stroke-dasharray="5,2" d="M308.05,-116.76C308.05,-103.51 308.05,-87.8 308.05,-87.8 308.05,-87.8 1232,-87.8 1232,-87.8 1232,-87.8 1232,-87.51 1232,-87.51"/>
<polygon fill="black" stroke="black" points="1235.5,-94.88 1232,-84.88 1228.5,-94.88 1235.5,-94.88"/>
</g>
<!-- TransactionModule&#45;&gt;AppModule -->
<g id="edge7" class="edge">
<title>TransactionModule&#45;&gt;AppModule</title>
<path fill="none" stroke="black" d="M536,-152.91C536,-152.91 536,-171.79 536,-171.79"/>
<polygon fill="black" stroke="black" points="532.5,-171.79 536,-181.79 539.5,-171.79 532.5,-171.79"/>
</g>
<!-- UserModule&#45;&gt;AppModule -->
<g id="edge8" class="edge">
<title>UserModule&#45;&gt;AppModule</title>
<path fill="none" stroke="black" d="M660,-152.81C660,-168.85 660,-189.8 660,-189.8 660,-189.8 587.98,-189.8 587.98,-189.8"/>
<polygon fill="black" stroke="black" points="587.98,-186.3 577.98,-189.8 587.98,-193.3 587.98,-186.3"/>
</g>
<!-- CompanyService -->
<g id="node11" class="node">
<title>CompanyService</title>
<ellipse fill="#fdb462" stroke="black" cx="102" cy="-134.8" rx="77.59" ry="18"/>
<text text-anchor="middle" x="102" y="-130.6" font-family="Times,serif" font-size="14.00">CompanyService</text>
</g>
<!-- CompanyService&#45;&gt;AppModule -->
<g id="edge10" class="edge">
<title>CompanyService&#45;&gt;AppModule</title>
<path fill="none" stroke="black" d="M102,-152.81C102,-175.29 102,-210.8 102,-210.8 102,-210.8 483.99,-210.8 483.99,-210.8"/>
<polygon fill="black" stroke="black" points="483.99,-214.3 493.99,-210.8 483.99,-207.3 483.99,-214.3"/>
</g>
<!-- CreateEditListingComponent -->
<g id="node12" class="node">
<title>CreateEditListingComponent</title>
<polygon fill="#ffffb3" stroke="black" points="1947.36,-84.8 1766.64,-84.8 1766.64,-48.8 1947.36,-48.8 1947.36,-84.8"/>
<text text-anchor="middle" x="1857" y="-62.6" font-family="Times,serif" font-size="14.00">CreateEditListingComponent</text>
</g>
<!-- CreateEditListingComponent&#45;&gt;ListingModule -->
<g id="edge11" class="edge">
<title>CreateEditListingComponent&#45;&gt;ListingModule</title>
<path fill="none" stroke="black" d="M1857,-85C1857,-90.83 1857,-95.8 1857,-95.8 1857,-95.8 406,-95.8 406,-95.8 406,-95.8 406,-106.67 406,-106.67"/>
<polygon fill="black" stroke="black" points="402.5,-106.67 406,-116.67 409.5,-106.67 402.5,-106.67"/>
</g>
<!-- ListingDetailComponent -->
<g id="node13" class="node">
<title>ListingDetailComponent</title>
<polygon fill="#ffffb3" stroke="black" points="1748.71,-84.8 1593.29,-84.8 1593.29,-48.8 1748.71,-48.8 1748.71,-84.8"/>
<text text-anchor="middle" x="1671" y="-62.6" font-family="Times,serif" font-size="14.00">ListingDetailComponent</text>
</g>
<!-- ListingDetailComponent&#45;&gt;ListingModule -->
<g id="edge12" class="edge">
<title>ListingDetailComponent&#45;&gt;ListingModule</title>
<path fill="none" stroke="black" d="M1671,-84.96C1671,-89.84 1671,-93.8 1671,-93.8 1671,-93.8 389.46,-93.8 389.46,-93.8 389.46,-93.8 389.46,-106.7 389.46,-106.7"/>
<polygon fill="black" stroke="black" points="385.96,-106.7 389.46,-116.7 392.96,-106.7 385.96,-106.7"/>
</g>
<!-- ListingsComponent -->
<g id="node14" class="node">
<title>ListingsComponent</title>
<polygon fill="#ffffb3" stroke="black" points="2251.45,-84.8 2124.55,-84.8 2124.55,-48.8 2251.45,-48.8 2251.45,-84.8"/>
<text text-anchor="middle" x="2188" y="-62.6" font-family="Times,serif" font-size="14.00">ListingsComponent</text>
</g>
<!-- ListingsComponent&#45;&gt;ListingModule -->
<g id="edge13" class="edge">
<title>ListingsComponent&#45;&gt;ListingModule</title>
<path fill="none" stroke="black" d="M2188,-84.84C2188,-92.55 2188,-99.8 2188,-99.8 2188,-99.8 439.07,-99.8 439.07,-99.8 439.07,-99.8 439.07,-106.48 439.07,-106.48"/>
<polygon fill="black" stroke="black" points="435.57,-106.48 439.07,-116.48 442.57,-106.48 435.57,-106.48"/>
</g>
<!-- MylistingsComponent -->
<g id="node15" class="node">
<title>MylistingsComponent</title>
<polygon fill="#ffffb3" stroke="black" points="2106.73,-84.8 1965.27,-84.8 1965.27,-48.8 2106.73,-48.8 2106.73,-84.8"/>
<text text-anchor="middle" x="2036" y="-62.6" font-family="Times,serif" font-size="14.00">MylistingsComponent</text>
</g>
<!-- MylistingsComponent&#45;&gt;ListingModule -->
<g id="edge14" class="edge">
<title>MylistingsComponent&#45;&gt;ListingModule</title>
<path fill="none" stroke="black" d="M2036,-84.83C2036,-91.65 2036,-97.8 2036,-97.8 2036,-97.8 422.54,-97.8 422.54,-97.8 422.54,-97.8 422.54,-106.73 422.54,-106.73"/>
<polygon fill="black" stroke="black" points="419.04,-106.73 422.54,-116.73 426.04,-106.73 419.04,-106.73"/>
</g>
<!-- OrderByPipe -->
<g id="node16" class="node">
<title>OrderByPipe</title>
<polygon fill="#ffffb3" stroke="black" points="1552.88,-84.8 1463.12,-84.8 1463.12,-48.8 1552.88,-48.8 1552.88,-84.8"/>
<text text-anchor="middle" x="1508" y="-62.6" font-family="Times,serif" font-size="14.00">OrderByPipe</text>
</g>
<!-- OrderByPipe&#45;&gt;TaxonomyModule -->
<g id="edge16" class="edge">
<title>OrderByPipe&#45;&gt;TaxonomyModule</title>
<path fill="none" stroke="black" d="M1508,-84.97C1508,-88.85 1508,-91.8 1508,-91.8 1508,-91.8 278,-91.8 278,-91.8 278,-91.8 278,-106.31 278,-106.31"/>
<polygon fill="black" stroke="black" points="274.5,-106.31 278,-116.31 281.5,-106.31 274.5,-106.31"/>
</g>
<!-- TaxonomyComponent -->
<g id="node17" class="node">
<title>TaxonomyComponent</title>
<polygon fill="#ffffb3" stroke="black" points="1444.99,-84.8 1303.01,-84.8 1303.01,-48.8 1444.99,-48.8 1444.99,-84.8"/>
<text text-anchor="middle" x="1374" y="-62.6" font-family="Times,serif" font-size="14.00">TaxonomyComponent</text>
</g>
<!-- TaxonomyComponent&#45;&gt;TaxonomyModule -->
<g id="edge17" class="edge">
<title>TaxonomyComponent&#45;&gt;TaxonomyModule</title>
<path fill="none" stroke="black" d="M1374,-84.92C1374,-87.77 1374,-89.8 1374,-89.8 1374,-89.8 247.95,-89.8 247.95,-89.8 247.95,-89.8 247.95,-106.76 247.95,-106.76"/>
<polygon fill="black" stroke="black" points="244.45,-106.76 247.95,-116.76 251.45,-106.76 244.45,-106.76"/>
</g>
<!-- TransactiondetailComponent -->
<g id="node19" class="node">
<title>TransactiondetailComponent</title>
<polygon fill="#ffffb3" stroke="black" points="2640.01,-84.8 2461.99,-84.8 2461.99,-48.8 2640.01,-48.8 2640.01,-84.8"/>
<text text-anchor="middle" x="2551" y="-62.6" font-family="Times,serif" font-size="14.00">TransactiondetailComponent</text>
</g>
<!-- TransactiondetailComponent&#45;&gt;TransactionModule -->
<g id="edge20" class="edge">
<title>TransactiondetailComponent&#45;&gt;TransactionModule</title>
<path fill="none" stroke="black" d="M2551,-84.91C2551,-94.7 2551,-104.8 2551,-104.8 2551,-104.8 556.94,-104.8 556.94,-104.8 556.94,-104.8 556.94,-106.66 556.94,-106.66"/>
<polygon fill="black" stroke="black" points="553.44,-106.66 556.94,-116.66 560.44,-106.66 553.44,-106.66"/>
</g>
<!-- TransactionsComponent -->
<g id="node20" class="node">
<title>TransactionsComponent</title>
<polygon fill="#ffffb3" stroke="black" points="2443.36,-84.8 2290.64,-84.8 2290.64,-48.8 2443.36,-48.8 2443.36,-84.8"/>
<text text-anchor="middle" x="2367" y="-62.6" font-family="Times,serif" font-size="14.00">TransactionsComponent</text>
</g>
<!-- TransactionsComponent&#45;&gt;TransactionModule -->
<g id="edge21" class="edge">
<title>TransactionsComponent&#45;&gt;TransactionModule</title>
<path fill="none" stroke="black" d="M2367,-85.22C2367,-94.08 2367,-102.8 2367,-102.8 2367,-102.8 515.06,-102.8 515.06,-102.8 515.06,-102.8 515.06,-106.56 515.06,-106.56"/>
<polygon fill="black" stroke="black" points="511.56,-106.56 515.06,-116.56 518.56,-106.56 511.56,-106.56"/>
</g>
<!-- ChangePasswordComponent -->
<g id="node21" class="node">
<title>ChangePasswordComponent</title>
<polygon fill="#ffffb3" stroke="black" points="3129.77,-84.8 2952.23,-84.8 2952.23,-48.8 3129.77,-48.8 3129.77,-84.8"/>
<text text-anchor="middle" x="3041" y="-62.6" font-family="Times,serif" font-size="14.00">ChangePasswordComponent</text>
</g>
<!-- ChangePasswordComponent&#45;&gt;UserModule -->
<g id="edge23" class="edge">
<title>ChangePasswordComponent&#45;&gt;UserModule</title>
<path fill="none" stroke="black" d="M3041,-84.95C3041,-97.07 3041,-110.8 3041,-110.8 3041,-110.8 666.14,-110.8 666.14,-110.8 666.14,-110.8 666.14,-111.38 666.14,-111.38"/>
<polygon fill="black" stroke="black" points="662.64,-106.61 666.14,-116.61 669.64,-106.61 662.64,-106.61"/>
</g>
<!-- LoginComponent -->
<g id="node22" class="node">
<title>LoginComponent</title>
<polygon fill="#ffffb3" stroke="black" points="2934.27,-84.8 2819.73,-84.8 2819.73,-48.8 2934.27,-48.8 2934.27,-84.8"/>
<text text-anchor="middle" x="2877" y="-62.6" font-family="Times,serif" font-size="14.00">LoginComponent</text>
</g>
<!-- LoginComponent&#45;&gt;UserModule -->
<g id="edge24" class="edge">
<title>LoginComponent&#45;&gt;UserModule</title>
<path fill="none" stroke="black" d="M2877,-84.86C2877,-96.24 2877,-108.8 2877,-108.8 2877,-108.8 653.86,-108.8 653.86,-108.8 653.86,-108.8 653.86,-109.59 653.86,-109.59"/>
<polygon fill="black" stroke="black" points="650.36,-106.74 653.86,-116.74 657.36,-106.74 650.36,-106.74"/>
</g>
<!-- ProfileComponent -->
<g id="node23" class="node">
<title>ProfileComponent</title>
<polygon fill="#ffffb3" stroke="black" points="3405.94,-84.8 3286.06,-84.8 3286.06,-48.8 3405.94,-48.8 3405.94,-84.8"/>
<text text-anchor="middle" x="3346" y="-62.6" font-family="Times,serif" font-size="14.00">ProfileComponent</text>
</g>
<!-- ProfileComponent&#45;&gt;UserModule -->
<g id="edge25" class="edge">
<title>ProfileComponent&#45;&gt;UserModule</title>
<path fill="none" stroke="black" d="M3346,-84.95C3346,-98.54 3346,-114.8 3346,-114.8 3346,-114.8 690.71,-114.8 690.71,-114.8 690.71,-114.8 690.71,-114.98 690.71,-114.98"/>
<polygon fill="black" stroke="black" points="687.21,-106.65 690.71,-116.65 694.21,-106.65 687.21,-106.65"/>
</g>
<!-- SignupComponent -->
<g id="node24" class="node">
<title>SignupComponent</title>
<polygon fill="#ffffb3" stroke="black" points="3268.51,-84.8 3147.49,-84.8 3147.49,-48.8 3268.51,-48.8 3268.51,-84.8"/>
<text text-anchor="middle" x="3208" y="-62.6" font-family="Times,serif" font-size="14.00">SignupComponent</text>
</g>
<!-- SignupComponent&#45;&gt;UserModule -->
<g id="edge26" class="edge">
<title>SignupComponent&#45;&gt;UserModule</title>
<path fill="none" stroke="black" d="M3208,-84.98C3208,-97.84 3208,-112.8 3208,-112.8 3208,-112.8 678.43,-112.8 678.43,-112.8 678.43,-112.8 678.43,-113.18 678.43,-113.18"/>
<polygon fill="black" stroke="black" points="674.93,-106.63 678.43,-116.63 681.93,-106.63 674.93,-106.63"/>
</g>
<!-- UserService -->
<g id="node25" class="node">
<title>UserService</title>
<ellipse fill="#fdb462" stroke="black" cx="2738" cy="-66.8" rx="58.46" ry="18"/>
<text text-anchor="middle" x="2738" y="-62.6" font-family="Times,serif" font-size="14.00">UserService</text>
</g>
<!-- UserService&#45;&gt;UserModule -->
<g id="edge28" class="edge">
<title>UserService&#45;&gt;UserModule</title>
<path fill="none" stroke="black" d="M2738,-84.93C2738,-95.51 2738,-106.8 2738,-106.8 2738,-106.8 641.57,-106.8 641.57,-106.8 641.57,-106.8 641.57,-107.78 641.57,-107.78"/>
<polygon fill="black" stroke="black" points="638.07,-106.59 641.57,-116.59 645.07,-106.59 638.07,-106.59"/>
</g>
</g>
</svg>
