<?xml version="1.0" encoding="UTF-8" standalone="no"?>
<!DOCTYPE svg PUBLIC "-//W3C//DTD SVG 1.1//EN"
 "http://www.w3.org/Graphics/SVG/1.1/DTD/svg11.dtd">
<!-- Generated by graphviz version 5.0.0 (20220707.1540)
 -->
<!-- Title: dependencies Pages: 1 -->
<svg width="458pt" height="247pt"
 viewBox="0.00 0.00 458.00 246.80" xmlns="http://www.w3.org/2000/svg" xmlns:xlink="http://www.w3.org/1999/xlink">
<g id="graph0" class="graph" transform="scale(1 1) rotate(0) translate(4 242.8)">
<title>dependencies</title>
<polygon fill="white" stroke="transparent" points="-4,4 -4,-242.8 454,-242.8 454,4 -4,4"/>
<text text-anchor="middle" x="225" y="-8.2" font-family="sans-serif" font-size="14.00">dependencies</text>
<g id="clust1" class="cluster">
<title>cluster_TaxonomyModule</title>
<polygon fill="none" stroke="black" stroke-dasharray="1,5" points="8,-32.8 8,-230.8 442,-230.8 442,-32.8 8,-32.8"/>
</g>
<g id="clust6" class="cluster">
<title>cluster_TaxonomyModule_exports</title>
<polygon fill="none" stroke="black" points="192,-170.8 192,-222.8 302,-222.8 302,-170.8 192,-170.8"/>
</g>
<g id="clust2" class="cluster">
<title>cluster_TaxonomyModule_declarations</title>
<polygon fill="none" stroke="black" points="168,-40.8 168,-92.8 434,-92.8 434,-40.8 168,-40.8"/>
</g>
<g id="clust5" class="cluster">
<title>cluster_TaxonomyModule_imports</title>
<polygon fill="none" stroke="black" points="16,-40.8 16,-92.8 160,-92.8 160,-40.8 16,-40.8"/>
</g>
<!-- OrderByPipe -->
<g id="node1" class="node">
<title>OrderByPipe</title>
<polygon fill="#ffffb3" stroke="black" points="425.88,-84.8 336.12,-84.8 336.12,-48.8 425.88,-48.8 425.88,-84.8"/>
<text text-anchor="middle" x="381" y="-62.6" font-family="Times,serif" font-size="14.00">OrderByPipe</text>
</g>
<!-- TaxonomyModule -->
<g id="node3" class="node">
<title>TaxonomyModule</title>
<polygon fill="#8dd3c7" stroke="black" points="307.21,-149.8 304.21,-153.8 283.21,-153.8 280.21,-149.8 186.79,-149.8 186.79,-113.8 307.21,-113.8 307.21,-149.8"/>
<text text-anchor="middle" x="247" y="-127.6" font-family="Times,serif" font-size="14.00">TaxonomyModule</text>
</g>
<!-- OrderByPipe&#45;&gt;TaxonomyModule -->
<g id="edge1" class="edge">
<title>OrderByPipe&#45;&gt;TaxonomyModule</title>
<path fill="none" stroke="black" d="M381,-84.91C381,-104.14 381,-131.8 381,-131.8 381,-131.8 317.34,-131.8 317.34,-131.8"/>
<polygon fill="black" stroke="black" points="317.34,-128.3 307.34,-131.8 317.34,-135.3 317.34,-128.3"/>
</g>
<!-- TaxonomyComponent -->
<g id="node2" class="node">
<title>TaxonomyComponent</title>
<polygon fill="#ffffb3" stroke="black" points="317.99,-84.8 176.01,-84.8 176.01,-48.8 317.99,-48.8 317.99,-84.8"/>
<text text-anchor="middle" x="247" y="-62.6" font-family="Times,serif" font-size="14.00">TaxonomyComponent</text>
</g>
<!-- TaxonomyComponent&#45;&gt;TaxonomyModule -->
<g id="edge2" class="edge">
<title>TaxonomyComponent&#45;&gt;TaxonomyModule</title>
<path fill="none" stroke="black" d="M247,-84.91C247,-84.91 247,-103.79 247,-103.79"/>
<polygon fill="black" stroke="black" points="243.5,-103.79 247,-113.79 250.5,-103.79 243.5,-103.79"/>
</g>
<!-- OrderByPipe  -->
<g id="node5" class="node">
<title>OrderByPipe </title>
<polygon fill="#fb8072" stroke="black" points="293.88,-214.8 200.12,-214.8 200.12,-178.8 293.88,-178.8 293.88,-214.8"/>
<text text-anchor="middle" x="247" y="-192.6" font-family="Times,serif" font-size="14.00">OrderByPipe </text>
</g>
<!-- TaxonomyModule&#45;&gt;OrderByPipe  -->
<g id="edge4" class="edge">
<title>TaxonomyModule&#45;&gt;OrderByPipe </title>
<path fill="none" stroke="black" stroke-dasharray="5,2" d="M247,-149.91C247,-149.91 247,-168.79 247,-168.79"/>
<polygon fill="black" stroke="black" points="243.5,-168.79 247,-178.79 250.5,-168.79 243.5,-168.79"/>
</g>
<!-- AppRoutingModule -->
<g id="node4" class="node">
<title>AppRoutingModule</title>
<polygon fill="#8dd3c7" stroke="black" points="152.28,-84.8 149.28,-88.8 128.28,-88.8 125.28,-84.8 23.72,-84.8 23.72,-48.8 152.28,-48.8 152.28,-84.8"/>
<text text-anchor="middle" x="88" y="-62.6" font-family="Times,serif" font-size="14.00">AppRoutingModule</text>
</g>
<!-- AppRoutingModule&#45;&gt;TaxonomyModule -->
<g id="edge3" class="edge">
<title>AppRoutingModule&#45;&gt;TaxonomyModule</title>
<path fill="none" stroke="black" d="M88,-84.91C88,-104.14 88,-131.8 88,-131.8 88,-131.8 176.89,-131.8 176.89,-131.8"/>
<polygon fill="black" stroke="black" points="176.89,-135.3 186.89,-131.8 176.89,-128.3 176.89,-135.3"/>
</g>
</g>
</svg>
