<?xml version="1.0" encoding="UTF-8" standalone="no"?>
<!DOCTYPE svg PUBLIC "-//W3C//DTD SVG 1.1//EN"
 "http://www.w3.org/Graphics/SVG/1.1/DTD/svg11.dtd">
<!-- Generated by graphviz version 5.0.0 (20220707.1540)
 -->
<!-- Title: dependencies Pages: 1 -->
<svg width="1310pt" height="247pt"
 viewBox="0.00 0.00 1310.00 246.80" xmlns="http://www.w3.org/2000/svg" xmlns:xlink="http://www.w3.org/1999/xlink">
<g id="graph0" class="graph" transform="scale(1 1) rotate(0) translate(4 242.8)">
<title>dependencies</title>
<polygon fill="white" stroke="transparent" points="-4,4 -4,-242.8 1306,-242.8 1306,4 -4,4"/>
<text text-anchor="middle" x="651" y="-8.2" font-family="sans-serif" font-size="14.00">dependencies</text>
<g id="clust1" class="cluster">
<title>cluster_AppModule</title>
<polygon fill="none" stroke="black" stroke-dasharray="1,5" points="8,-32.8 8,-230.8 1294,-230.8 1294,-32.8 8,-32.8"/>
</g>
<g id="clust8" class="cluster">
<title>cluster_AppModule_bootstrap</title>
<polygon fill="none" stroke="black" points="530,-170.8 530,-222.8 654,-222.8 654,-170.8 530,-170.8"/>
</g>
<g id="clust2" class="cluster">
<title>cluster_AppModule_declarations</title>
<polygon fill="none" stroke="black" points="852,-40.8 852,-92.8 1286,-92.8 1286,-40.8 852,-40.8"/>
</g>
<g id="clust9" class="cluster">
<title>cluster_AppModule_providers</title>
<polygon fill="none" stroke="black" points="672,-40.8 672,-92.8 844,-92.8 844,-40.8 672,-40.8"/>
</g>
<g id="clust6" class="cluster">
<title>cluster_AppModule_imports</title>
<polygon fill="none" stroke="black" points="16,-40.8 16,-92.8 664,-92.8 664,-40.8 16,-40.8"/>
</g>
<!-- AppComponent -->
<g id="node1" class="node">
<title>AppComponent</title>
<polygon fill="#ffffb3" stroke="black" points="1277.94,-84.8 1172.06,-84.8 1172.06,-48.8 1277.94,-48.8 1277.94,-84.8"/>
<text text-anchor="middle" x="1225" y="-62.6" font-family="Times,serif" font-size="14.00">AppComponent</text>
</g>
<!-- AppModule -->
<g id="node4" class="node">
<title>AppModule</title>
<polygon fill="#8dd3c7" stroke="black" points="633.66,-149.8 630.66,-153.8 609.66,-153.8 606.66,-149.8 550.34,-149.8 550.34,-113.8 633.66,-113.8 633.66,-149.8"/>
<text text-anchor="middle" x="592" y="-127.6" font-family="Times,serif" font-size="14.00">AppModule</text>
</g>
<!-- AppComponent&#45;&gt;AppModule -->
<g id="edge1" class="edge">
<title>AppComponent&#45;&gt;AppModule</title>
<path fill="none" stroke="black" d="M1225,-84.81C1225,-107.29 1225,-142.8 1225,-142.8 1225,-142.8 644.02,-142.8 644.02,-142.8"/>
<polygon fill="black" stroke="black" points="644.02,-139.3 634.02,-142.8 644.02,-146.3 644.02,-139.3"/>
</g>
<!-- CategoriesComponent -->
<g id="node2" class="node">
<title>CategoriesComponent</title>
<polygon fill="#ffffb3" stroke="black" points="1154.7,-84.8 1013.3,-84.8 1013.3,-48.8 1154.7,-48.8 1154.7,-84.8"/>
<text text-anchor="middle" x="1084" y="-62.6" font-family="Times,serif" font-size="14.00">CategoriesComponent</text>
</g>
<!-- CategoriesComponent&#45;&gt;AppModule -->
<g id="edge2" class="edge">
<title>CategoriesComponent&#45;&gt;AppModule</title>
<path fill="none" stroke="black" d="M1084,-84.93C1084,-105.37 1084,-135.8 1084,-135.8 1084,-135.8 643.95,-135.8 643.95,-135.8"/>
<polygon fill="black" stroke="black" points="643.95,-132.3 633.95,-135.8 643.95,-139.3 643.95,-132.3"/>
</g>
<!-- MessagesComponent -->
<g id="node3" class="node">
<title>MessagesComponent</title>
<polygon fill="#ffffb3" stroke="black" points="995.77,-84.8 860.23,-84.8 860.23,-48.8 995.77,-48.8 995.77,-84.8"/>
<text text-anchor="middle" x="928" y="-62.6" font-family="Times,serif" font-size="14.00">MessagesComponent</text>
</g>
<!-- MessagesComponent&#45;&gt;AppModule -->
<g id="edge3" class="edge">
<title>MessagesComponent&#45;&gt;AppModule</title>
<path fill="none" stroke="black" d="M928,-85.07C928,-103.36 928,-128.8 928,-128.8 928,-128.8 643.88,-128.8 643.88,-128.8"/>
<polygon fill="black" stroke="black" points="643.88,-125.3 633.88,-128.8 643.88,-132.3 643.88,-125.3"/>
</g>
<!-- AppComponent  -->
<g id="node10" class="node">
<title>AppComponent </title>
<polygon fill="#80b1d3" stroke="black" points="646.44,-214.8 537.56,-214.8 537.56,-178.8 646.44,-178.8 646.44,-214.8"/>
<text text-anchor="middle" x="592" y="-192.6" font-family="Times,serif" font-size="14.00">AppComponent </text>
</g>
<!-- AppModule&#45;&gt;AppComponent  -->
<g id="edge9" class="edge">
<title>AppModule&#45;&gt;AppComponent </title>
<path fill="none" stroke="black" stroke-dasharray="1,5" d="M592,-149.91C592,-149.91 592,-168.79 592,-168.79"/>
<polygon fill="black" stroke="black" points="588.5,-168.79 592,-178.79 595.5,-168.79 588.5,-168.79"/>
</g>
<!-- AppRoutingModule -->
<g id="node5" class="node">
<title>AppRoutingModule</title>
<polygon fill="#8dd3c7" stroke="black" points="656.28,-84.8 653.28,-88.8 632.28,-88.8 629.28,-84.8 527.72,-84.8 527.72,-48.8 656.28,-48.8 656.28,-84.8"/>
<text text-anchor="middle" x="592" y="-62.6" font-family="Times,serif" font-size="14.00">AppRoutingModule</text>
</g>
<!-- AppRoutingModule&#45;&gt;AppModule -->
<g id="edge4" class="edge">
<title>AppRoutingModule&#45;&gt;AppModule</title>
<path fill="none" stroke="black" d="M592,-84.91C592,-84.91 592,-103.79 592,-103.79"/>
<polygon fill="black" stroke="black" points="588.5,-103.79 592,-113.79 595.5,-103.79 588.5,-103.79"/>
</g>
<!-- ListingModule -->
<g id="node6" class="node">
<title>ListingModule</title>
<polygon fill="#8dd3c7" stroke="black" points="509.72,-84.8 506.72,-88.8 485.72,-88.8 482.72,-84.8 410.28,-84.8 410.28,-48.8 509.72,-48.8 509.72,-84.8"/>
<text text-anchor="middle" x="460" y="-62.6" font-family="Times,serif" font-size="14.00">ListingModule</text>
</g>
<!-- ListingModule&#45;&gt;AppModule -->
<g id="edge5" class="edge">
<title>ListingModule&#45;&gt;AppModule</title>
<path fill="none" stroke="black" d="M460,-84.81C460,-100.85 460,-121.8 460,-121.8 460,-121.8 540.23,-121.8 540.23,-121.8"/>
<polygon fill="black" stroke="black" points="540.23,-125.3 550.23,-121.8 540.23,-118.3 540.23,-125.3"/>
</g>
<!-- TaxonomyModule -->
<g id="node7" class="node">
<title>TaxonomyModule</title>
<polygon fill="#8dd3c7" stroke="black" points="392.21,-84.8 389.21,-88.8 368.21,-88.8 365.21,-84.8 271.79,-84.8 271.79,-48.8 392.21,-48.8 392.21,-84.8"/>
<text text-anchor="middle" x="332" y="-62.6" font-family="Times,serif" font-size="14.00">TaxonomyModule</text>
</g>
<!-- TaxonomyModule&#45;&gt;AppModule -->
<g id="edge6" class="edge">
<title>TaxonomyModule&#45;&gt;AppModule</title>
<path fill="none" stroke="black" d="M332,-85.07C332,-103.36 332,-128.8 332,-128.8 332,-128.8 540.23,-128.8 540.23,-128.8"/>
<polygon fill="black" stroke="black" points="540.23,-132.3 550.23,-128.8 540.23,-125.3 540.23,-132.3"/>
</g>
<!-- TransactionModule -->
<g id="node8" class="node">
<title>TransactionModule</title>
<polygon fill="#8dd3c7" stroke="black" points="253.64,-84.8 250.64,-88.8 229.64,-88.8 226.64,-84.8 128.36,-84.8 128.36,-48.8 253.64,-48.8 253.64,-84.8"/>
<text text-anchor="middle" x="191" y="-62.6" font-family="Times,serif" font-size="14.00">TransactionModule</text>
</g>
<!-- TransactionModule&#45;&gt;AppModule -->
<g id="edge7" class="edge">
<title>TransactionModule&#45;&gt;AppModule</title>
<path fill="none" stroke="black" d="M191,-84.93C191,-105.37 191,-135.8 191,-135.8 191,-135.8 540.22,-135.8 540.22,-135.8"/>
<polygon fill="black" stroke="black" points="540.22,-139.3 550.22,-135.8 540.22,-132.3 540.22,-139.3"/>
</g>
<!-- UserModule -->
<g id="node9" class="node">
<title>UserModule</title>
<polygon fill="#8dd3c7" stroke="black" points="109.99,-84.8 106.99,-88.8 85.99,-88.8 82.99,-84.8 24.01,-84.8 24.01,-48.8 109.99,-48.8 109.99,-84.8"/>
<text text-anchor="middle" x="67" y="-62.6" font-family="Times,serif" font-size="14.00">UserModule</text>
</g>
<!-- UserModule&#45;&gt;AppModule -->
<g id="edge8" class="edge">
<title>UserModule&#45;&gt;AppModule</title>
<path fill="none" stroke="black" d="M67,-84.81C67,-107.29 67,-142.8 67,-142.8 67,-142.8 539.92,-142.8 539.92,-142.8"/>
<polygon fill="black" stroke="black" points="539.92,-146.3 549.92,-142.8 539.92,-139.3 539.92,-146.3"/>
</g>
<!-- CompanyService -->
<g id="node11" class="node">
<title>CompanyService</title>
<ellipse fill="#fdb462" stroke="black" cx="758" cy="-66.8" rx="77.59" ry="18"/>
<text text-anchor="middle" x="758" y="-62.6" font-family="Times,serif" font-size="14.00">CompanyService</text>
</g>
<!-- CompanyService&#45;&gt;AppModule -->
<g id="edge10" class="edge">
<title>CompanyService&#45;&gt;AppModule</title>
<path fill="none" stroke="black" d="M758,-84.81C758,-100.85 758,-121.8 758,-121.8 758,-121.8 643.89,-121.8 643.89,-121.8"/>
<polygon fill="black" stroke="black" points="643.89,-118.3 633.89,-121.8 643.89,-125.3 643.89,-118.3"/>
</g>
</g>
</svg>
