<?xml version="1.0" encoding="UTF-8" standalone="no"?>
<!DOCTYPE svg PUBLIC "-//W3C//DTD SVG 1.1//EN"
 "http://www.w3.org/Graphics/SVG/1.1/DTD/svg11.dtd">
<!-- Generated by graphviz version 5.0.0 (20220707.1540)
 -->
<!-- Title: dependencies Pages: 1 -->
<svg width="557pt" height="174pt"
 viewBox="0.00 0.00 557.00 173.80" xmlns="http://www.w3.org/2000/svg" xmlns:xlink="http://www.w3.org/1999/xlink">
<g id="graph0" class="graph" transform="scale(1 1) rotate(0) translate(4 169.8)">
<title>dependencies</title>
<polygon fill="white" stroke="transparent" points="-4,4 -4,-169.8 553,-169.8 553,4 -4,4"/>
<text text-anchor="middle" x="274.5" y="-8.2" font-family="sans-serif" font-size="14.00">dependencies</text>
<g id="clust1" class="cluster">
<title>cluster_TransactionModule</title>
<polygon fill="none" stroke="black" stroke-dasharray="1,5" points="8,-32.8 8,-157.8 541,-157.8 541,-32.8 8,-32.8"/>
</g>
<g id="clust2" class="cluster">
<title>cluster_TransactionModule_declarations</title>
<polygon fill="none" stroke="black" points="168,-40.8 168,-92.8 533,-92.8 533,-40.8 168,-40.8"/>
</g>
<g id="clust5" class="cluster">
<title>cluster_TransactionModule_imports</title>
<polygon fill="none" stroke="black" points="16,-40.8 16,-92.8 160,-92.8 160,-40.8 16,-40.8"/>
</g>
<!-- TransactiondetailComponent -->
<g id="node1" class="node">
<title>TransactiondetailComponent</title>
<polygon fill="#ffffb3" stroke="black" points="525.01,-84.8 346.99,-84.8 346.99,-48.8 525.01,-48.8 525.01,-84.8"/>
<text text-anchor="middle" x="436" y="-62.6" font-family="Times,serif" font-size="14.00">TransactiondetailComponent</text>
</g>
<!-- TransactionModule -->
<g id="node3" class="node">
<title>TransactionModule</title>
<polygon fill="#8dd3c7" stroke="black" points="314.64,-149.8 311.64,-153.8 290.64,-153.8 287.64,-149.8 189.36,-149.8 189.36,-113.8 314.64,-113.8 314.64,-149.8"/>
<text text-anchor="middle" x="252" y="-127.6" font-family="Times,serif" font-size="14.00">TransactionModule</text>
</g>
<!-- TransactiondetailComponent&#45;&gt;TransactionModule -->
<g id="edge1" class="edge">
<title>TransactiondetailComponent&#45;&gt;TransactionModule</title>
<path fill="none" stroke="black" d="M436,-84.91C436,-104.14 436,-131.8 436,-131.8 436,-131.8 324.81,-131.8 324.81,-131.8"/>
<polygon fill="black" stroke="black" points="324.81,-128.3 314.81,-131.8 324.81,-135.3 324.81,-128.3"/>
</g>
<!-- TransactionsComponent -->
<g id="node2" class="node">
<title>TransactionsComponent</title>
<polygon fill="#ffffb3" stroke="black" points="328.36,-84.8 175.64,-84.8 175.64,-48.8 328.36,-48.8 328.36,-84.8"/>
<text text-anchor="middle" x="252" y="-62.6" font-family="Times,serif" font-size="14.00">TransactionsComponent</text>
</g>
<!-- TransactionsComponent&#45;&gt;TransactionModule -->
<g id="edge2" class="edge">
<title>TransactionsComponent&#45;&gt;TransactionModule</title>
<path fill="none" stroke="black" d="M252,-84.91C252,-84.91 252,-103.79 252,-103.79"/>
<polygon fill="black" stroke="black" points="248.5,-103.79 252,-113.79 255.5,-103.79 248.5,-103.79"/>
</g>
<!-- AppRoutingModule -->
<g id="node4" class="node">
<title>AppRoutingModule</title>
<polygon fill="#8dd3c7" stroke="black" points="152.28,-84.8 149.28,-88.8 128.28,-88.8 125.28,-84.8 23.72,-84.8 23.72,-48.8 152.28,-48.8 152.28,-84.8"/>
<text text-anchor="middle" x="88" y="-62.6" font-family="Times,serif" font-size="14.00">AppRoutingModule</text>
</g>
<!-- AppRoutingModule&#45;&gt;TransactionModule -->
<g id="edge3" class="edge">
<title>AppRoutingModule&#45;&gt;TransactionModule</title>
<path fill="none" stroke="black" d="M88,-84.91C88,-104.14 88,-131.8 88,-131.8 88,-131.8 179.06,-131.8 179.06,-131.8"/>
<polygon fill="black" stroke="black" points="179.06,-135.3 189.06,-131.8 179.06,-128.3 179.06,-135.3"/>
</g>
</g>
</svg>
